<?xml version="1.0" encoding="UTF-8"?>
<!--  医院知识库 SVG 图标（去除右上空余） -->
<svg width="32" height="34" viewBox="0 0 32 34" fill="none" xmlns="http://www.w3.org/2000/svg">
  <!-- 书本底座 -->
  <path d="M4 8 L28 8 L28 30 C28 31.1 27.1 32 26 32 L6 32 C4.9 32 4 31.1 4 30 L4 8 Z" fill="#E8F4FD" stroke="#2E7BCF" stroke-width="1"/>
  
  <!-- 书本页面 -->
  <path d="M6 10 L26 10 L26 28 L6 28 Z" fill="#FFFFFF"/>
  <line x1="8" y1="13" x2="24" y2="13" stroke="#B8D4F0" stroke-width="1"/>
  <line x1="8" y1="16" x2="20" y2="16" stroke="#B8D4F0" stroke-width="1"/>
  <line x1="8" y1="19" x2="22" y2="19" stroke="#B8D4F0" stroke-width="1"/>
  <line x1="8" y1="22" x2="18" y2="22" stroke="#B8D4F0" stroke-width="1"/>
  <line x1="8" y1="25" x2="24" y2="25" stroke="#B8D4F0" stroke-width="1"/>
  
  <!-- 医疗十字背景圆 -->
  <circle cx="20" cy="12" r="8" fill="#2E7BCF"/>
  
  <!-- 医疗十字 -->
  <rect x="17" y="7" width="6" height="2.5" rx="1" fill="white"/>
  <rect x="17" y="14.5" width="6" height="2.5" rx="1" fill="white"/>
  <rect x="18.75" y="5.25" width="2.5" height="6" rx="1" fill="white"/>
  <rect x="18.75" y="12.75" width="2.5" height="6" rx="1" fill="white"/>
  
  <!-- 知识点装饰 -->
  <circle cx="10" cy="6" r="1.5" fill="#4A90E2"/>
  <circle cx="14" cy="4" r="1" fill="#7BB3F0"/>
  <circle cx="18" cy="5" r="1" fill="#7BB3F0"/>
  
  <!-- 底部装饰线 -->
  <path d="M4 32 Q16 30 28 32" stroke="#2E7BCF" stroke-width="1" fill="none"/>
</svg>
